Coordinates
version=1
nRows=8
nColumns=28
inDegrees=yes

Units are S.I. units (second, meters, Newtons, ...)
Angles are in degrees.

endheader
time	pelvis_tilt	pelvis_list	pelvis_rotation	pelvis_tx	pelvis_ty	pelvis_tz	hip_flexion_r	hip_adduction_r	hip_rotation_r	knee_angle_r	ankle_angle_r	subtalar_angle_r	mtp_angle_r	hip_flexion_l	hip_adduction_l	hip_rotation_l	knee_angle_l	socket_flexion	socket_adduction	socket_rotation	socket_tx	socket_ty	socket_tz	foot_flex	lumbar_extension	lumbar_bending	lumbar_rotation
      0.31250000	      1.28013628	     -2.26967813	     -5.69074066	     -0.42728688	      1.02849722	      0.25835096	     14.09264973	      3.20438346	     -1.93344973	    -65.64503996	      7.71211542	    -16.67115721	     -4.48343781	      8.63949833	      2.88343673	      8.94469268	    -14.09343055	      0.00000000	      0.00000000	      0.00000000	      0.00000000	     -0.00528838	      0.00000000	      0.01937667	    -10.29692128	     -0.81554380	      4.57463192
      0.31666667	      1.26946847	     -2.63577711	     -5.44619154	     -0.42182353	      1.02884839	      0.25797629	     14.57006917	      3.52888251	     -2.25574118	    -65.24258644	      8.57222582	    -15.97720697	     -4.32854103	      8.20304272	      2.54539086	      9.26678009	    -13.93772004	      0.00000000	      0.00000000	      0.00000000	      0.00000000	     -0.00577816	      0.00000000	      0.15416056	    -10.28645421	     -0.30587145	      4.38509330
      0.32083333	      1.29963425	     -2.64528794	     -5.38024800	     -0.41684553	      1.02934746	      0.25800060	     15.13074037	      3.53661145	     -2.31247699	    -64.89207920	      8.64662310	    -15.94959169	     -4.31876656	      7.85380249	      2.55718022	      9.25114284	    -13.90357054	      0.00000000	      0.00000000	      0.00000000	      0.00000000	     -0.00551030	      0.00000000	      0.22504727	    -10.39803365	     -0.31101311	      4.36652118
      0.32500000	      1.30924811	     -2.98591607	     -5.05757209	     -0.41124652	      1.02974732	      0.25753533	     15.51897664	      3.78583184	     -2.72878980	    -64.33732909	      9.53407211	    -15.10125357	     -4.18455268	      7.39982677	      2.25240568	      9.63235450	    -13.75058437	      0.00000000	      0.00000000	      0.00000000	      0.00000000	     -0.00586453	      0.00000000	      0.38242569	    -10.36648456	      0.17500830	      4.04725648
      0.32916667	      1.33949223	     -2.98440823	     -4.99461876	     -0.40641188	      1.03018058	      0.25759655	     16.08110215	      3.77978588	     -2.78032214	    -63.94351913	      9.60120116	    -15.07824318	     -4.17886441	      7.06765538	      2.26980947	      9.61136032	    -13.72228192	      0.00000000	      0.00000000	      0.00000000	      0.00000000	     -0.00560343	      0.00000000	      0.44403267	    -10.49407425	      0.16869487	      4.02888740
      0.33333333	      1.40223147	     -3.29403908	     -4.55946185	     -0.40075391	      1.03066647	      0.25696658	     16.35087383	      3.91644889	     -3.34415089	    -63.24866667	     10.40578587	    -14.03179947	     -4.23063163	      6.57269289	      2.01010474	     10.07172001	    -13.57071440	      0.00000000	      0.00000000	      0.00000000	      0.00000000	     -0.00582398	      0.00000000	      0.61344404	    -10.52329730	      0.60898606	      3.46294994
      0.33750000	      1.42856625	     -3.28453620	     -4.51255307	     -0.39597769	      1.03097902	      0.25702676	     16.90884305	      3.89610539	     -3.38070807	    -62.80871229	     10.49407348	    -14.03270311	     -4.22447494	      6.24558556	      2.03660355	     10.05504562	    -13.55023705	      0.00000000	      0.00000000	      0.00000000	      0.00000000	     -0.00563695	      0.00000000	      0.67214330	    -10.64950429	      0.62392407	      3.45619924
      0.34166667	      1.42871069	     -3.63713937	     -4.19293542	     -0.39038104	      1.03134906	      0.25664059	     17.21753452	      4.17875806	     -3.74822698	    -62.00958225	     11.24793947	    -13.50029918	     -4.25287279	      5.80724051	      1.69478296	     10.39872677	    -13.39197342	      0.00000000	      0.00000000	      0.00000000	      0.00000000	     -0.00596919	      0.00000000	      0.81919515	    -10.59446507	      1.09773474	      3.21205631
